<svg xmlns="http://www.w3.org/2000/svg" xmlns:xlink="http://www.w3.org/1999/xlink" id="Layer_1" x="0px" y="0px" viewBox="0 0 110 45" style="enable-background:new 0 0 110 45;" xml:space="preserve"><style type="text/css">	.st0{clip-path:url(#SVGID_00000163764898177049139040000008099297556912454580_);fill:#DFFF00;}	.st1{fill:#DFFF00;}	.st2{clip-path:url(#SVGID_00000150817015704439246350000016647723195038412717_);fill:#DFFF00;}</style><g>	<g>		<defs>			<rect id="SVGID_1_" x="0.1" y="0.4" width="109.7" height="44.2"></rect>		</defs>		<clipPath id="SVGID_00000014613667379632946340000007791777147526250175_">			<use xlink:href="#SVGID_1_" style="overflow:visible;"></use>		</clipPath>		<path style="clip-path:url(#SVGID_00000014613667379632946340000007791777147526250175_);fill:#DFFF00;" d="M101,9.3L100.2,9v4.9   l0.3,0.2c2.9,1.8,4.7,5,4.7,8.4c0,5.5-4.4,9.9-9.9,9.9c-5.5,0-9.9-4.4-9.9-9.9c0-3.4,1.7-6.6,4.7-8.4l0.3-0.2V9l-0.8,0.4   c-5.4,2.3-8.9,7.6-8.9,13.4c0,5.7,3.3,10.8,8.5,13.2l6.2,8.5l6.1-8.6c4.3-2.3,8.5-7.3,8.5-13.1C109.9,16.9,106.4,11.6,101,9.3"></path>		<path style="clip-path:url(#SVGID_00000014613667379632946340000007791777147526250175_);fill:#DFFF00;" d="M17.8,16.3   c-0.1-4.7-3.7-7.7-8.1-7.7c-4.3,0-8.3,3.1-8.3,7.8c0,3,1.1,5.8,7.6,7.9c3.1,1,4.5,2.2,4.5,4c0,2.1-1.5,3.6-3.8,3.6   c-2.6,0-4.3-1.6-4.5-4.8h-5c0,6.1,4.6,9.4,9.4,9.4c5.2,0,8.9-3.3,8.9-8.5c0-4.9-3.4-7.2-7.2-8.3c-2.6-0.8-4.9-1.5-4.9-3.7   c0-1.5,1.2-2.8,3.1-2.8c2.1,0,3.2,1.3,3.4,3.2H17.8z"></path>		<path style="clip-path:url(#SVGID_00000014613667379632946340000007791777147526250175_);fill:#DFFF00;" d="M50.4,22.9   c0-8.2-5.8-14.3-13.7-14.3c-3.8,0-7.2,1.6-9.4,4.8h-0.1V9.3h-4.5v35.3h5V31.9h0.1c1.7,2.9,5.3,4.5,9.3,4.5   C44.6,36.4,50.4,30.3,50.4,22.9 M45.4,22.6c0,5.1-3.8,9.3-8.9,9.3c-5.2,0-9-4.3-9-9.4c0-4.9,3.8-9.4,8.8-9.4   C41.6,13.1,45.4,17.7,45.4,22.6"></path>	</g>	<rect x="55.4" y="0.4" class="st1" width="5" height="5.8"></rect>	<rect x="55.4" y="9.3" class="st1" width="5" height="26.5"></rect>	<g>		<defs>			<rect id="SVGID_00000178915339330631288670000012114570181513246108_" x="0.1" y="0.4" width="109.7" height="44.2"></rect>		</defs>		<clipPath id="SVGID_00000109725787358279062150000008666093881831937215_">			<use xlink:href="#SVGID_00000178915339330631288670000012114570181513246108_" style="overflow:visible;"></use>		</clipPath>		<path style="clip-path:url(#SVGID_00000109725787358279062150000008666093881831937215_);fill:#DFFF00;" d="M71.7,35.8V20.9   c0-4.4,2.2-7.1,6.5-7.2V8.6c-3.5,0.2-5.5,1.3-6.7,3.1h-0.1V9.3h-4.6v26.5H71.7z"></path>		<path style="clip-path:url(#SVGID_00000109725787358279062150000008666093881831937215_);fill:#DFFF00;" d="M95.2,23.1   c1.2,0,2.1-1,2.1-2.1V8.5c0-1.2-0.9-2.1-2.1-2.1c-1.2,0-2.1,1-2.1,2.1V21C93.1,22.2,94.1,23.1,95.2,23.1"></path>	</g></g></svg>